HIERARCHY
ROOT joint_Root
{
	OFFSET 0.0 0.0 0.0
	CHANNELS 6 Xposition Yposition Zposition Zrotation Xrotation Yrotation 
	JOINT Hips
	{
		OFFSET 4.5925 91.4895 -427.239
		CHANNELS 6 Xposition Yposition Zposition Zrotation Xrotation Yrotation 
		JOINT Spine
		{
			OFFSET 15.7357 0.0 0.0
			CHANNELS 6 Xposition Yposition Zposition Zrotation Xrotation Yrotation 
			JOINT Chest
			{
				OFFSET 8.98455 -0.406207 0.0
				CHANNELS 6 Xposition Yposition Zposition Zrotation Xrotation Yrotation 
				JOINT Neck
				{
					OFFSET 16.3773 0.0 0.0
					CHANNELS 6 Xposition Yposition Zposition Zrotation Xrotation Yrotation 
					JOINT Head
					{
						OFFSET 6.45672 0.0 0.0
						CHANNELS 6 Xposition Yposition Zposition Zrotation Xrotation Yrotation 
						End Site
						{
							OFFSET 0.0 0.0 0.0
						}
					}
				}
				JOINT Shoulder_L
				{
					OFFSET 12.9942 -0.242716 4.98039
					CHANNELS 6 Xposition Yposition Zposition Zrotation Xrotation Yrotation 
					JOINT UpperArm_L
					{
						OFFSET 5.34809 0.0 0.0
						CHANNELS 6 Xposition Yposition Zposition Zrotation Xrotation Yrotation 
						JOINT LowerArm_L
						{
							OFFSET 24.3286 1.87007e-05 0.0
							CHANNELS 6 Xposition Yposition Zposition Zrotation Xrotation Yrotation 
							JOINT Hand_L
							{
								OFFSET 22.2916 0.0 0.0
								CHANNELS 6 Xposition Yposition Zposition Zrotation Xrotation Yrotation 
								End Site
								{
									OFFSET 0.0 0.0 0.0
								}
							}
						}
					}
				}
				JOINT Shoulder_R
				{
					OFFSET 12.9945 -0.242716 -4.98039
					CHANNELS 6 Xposition Yposition Zposition Zrotation Xrotation Yrotation 
					JOINT UpperArm_R
					{
						OFFSET -5.34813 0.0 0.0
						CHANNELS 6 Xposition Yposition Zposition Zrotation Xrotation Yrotation 
						JOINT LowerArm_R
						{
							OFFSET -24.3289 0.000322201 0.0
							CHANNELS 6 Xposition Yposition Zposition Zrotation Xrotation Yrotation 
							JOINT Hand_R
							{
								OFFSET -22.2915 -0.000108084 0.0
								CHANNELS 6 Xposition Yposition Zposition Zrotation Xrotation Yrotation 
								End Site
								{
									OFFSET 0.0 0.0 0.0
								}
							}
						}
					}
				}
			}
		}
		JOINT UpperLeg_L
		{
			OFFSET -2.19248 -6.46944 0.0
			CHANNELS 6 Xposition Yposition Zposition Zrotation Xrotation Yrotation 
			JOINT LowerLeg_L
			{
				OFFSET 39.0811 0.0 -1.23785e-05
				CHANNELS 6 Xposition Yposition Zposition Zrotation Xrotation Yrotation 
				JOINT Foot_L
				{
					OFFSET 40.9854 0.0 -1.26872e-05
					CHANNELS 6 Xposition Yposition Zposition Zrotation Xrotation Yrotation 
					JOINT Toes_L
					{
						OFFSET 11.7543 0.0 0.0
						CHANNELS 6 Xposition Yposition Zposition Zrotation Xrotation Yrotation 
						End Site
						{
							OFFSET 0.0 0.0 0.0
						}
					}
				}
			}
		}
		JOINT UpperLeg_R
		{
			OFFSET -2.19251 6.46944 0.0
			CHANNELS 6 Xposition Yposition Zposition Zrotation Xrotation Yrotation 
			JOINT LowerLeg_R
			{
				OFFSET -39.0811 -0.00228153 -0.0401928
				CHANNELS 6 Xposition Yposition Zposition Zrotation Xrotation Yrotation 
				JOINT Foot_R
				{
					OFFSET -40.9854 0.0 0.0
					CHANNELS 6 Xposition Yposition Zposition Zrotation Xrotation Yrotation 
					JOINT Toes_R
					{
						OFFSET -11.7543 0.0 0.0
						CHANNELS 6 Xposition Yposition Zposition Zrotation Xrotation Yrotation 
						End Site
						{
							OFFSET 0.0 0.0 0.0
						}
					}
				}
			}
		}
	}
}
MOTION
Frames:	6
Frame Time:	0.0333333
0.000000 0.000000 0.000000 0.000000 0.000000 -0.000000 -2.405310 88.590800 26.449400 -90.707800 5.415020 -178.103000 15.735700 0.000005 -0.000001 92.306700 79.594200 -93.201700 8.984550 -0.406207 -0.000000 13.036400 0.788093 -1.880070 16.377300 -0.000001 -0.000001 0.212154 -4.564000 3.509900 6.456720 -0.000001 -0.000000 -6.179060 -3.933790 0.104401 12.994200 -0.242716 4.980390 -90.829500 2.968810 -74.382300 5.348090 -0.000007 -0.000001 -67.244600 31.000000 -11.522000 24.328600 0.000019 0.000005 7.788520 22.853800 -19.401000 22.291600 -0.000001 0.000005 10.820300 5.178750 3.246710 12.994500 -0.242716 -4.980390 88.979600 8.330860 -82.991800 -5.348130 -0.000001 -0.000004 -49.802700 22.375400 -27.596900 -24.328900 0.000322 -0.000009 -0.217418 -0.288816 -36.823000 -22.291500 -0.000108 -0.000004 19.033500 5.416030 -3.465640 -2.192480 -6.469440 -0.000000 178.795000 -8.690950 -28.608300 39.081100 -0.000007 -0.000012 0.049193 -0.088664 29.022400 40.985400 -0.000006 -0.000013 1.511950 3.543280 -49.865500 11.754300 -0.000000 0.000003 -0.003381 -0.044845 -18.400700 -2.192510 6.469440 -0.000001 175.256000 14.645200 175.063000 -39.081100 -0.002282 -0.040193 0.026499 -0.028169 39.497600 -40.985400 0.000008 0.000006 6.549360 4.626630 -76.775600 -11.754300 -0.000006 -0.000006 -1.085450 -1.236970 -21.783500
0.000000 0.000000 0.000000 0.000000 0.000000 -0.000000 -2.898440 88.171300 22.966800 -90.890900 5.587400 -177.524000 15.735700 0.000005 -0.000001 91.781600 79.607900 -92.994400 8.984550 -0.406207 -0.000000 13.016100 0.584215 -2.492300 16.377300 -0.000001 -0.000001 0.253441 -4.725790 3.491560 6.456720 -0.000001 -0.000000 -5.757210 -4.103960 0.495276 12.994200 -0.242716 4.980390 -90.920100 3.306760 -74.441400 5.348090 -0.000007 -0.000001 -66.748400 30.006900 -11.610100 24.328600 0.000019 0.000005 7.298640 22.923100 -18.202300 22.291600 -0.000001 0.000005 10.908500 5.171930 3.413080 12.994500 -0.242716 -4.980390 88.857800 8.985610 -82.725600 -5.348130 -0.000001 -0.000004 -49.708100 22.410600 -26.708700 -24.328900 0.000322 -0.000009 -0.257569 -0.326777 -38.129200 -22.291500 -0.000108 -0.000004 19.398100 5.427160 -3.841580 -2.192480 -6.469440 -0.000000 179.098000 -6.465660 -28.764200 39.081100 -0.000007 -0.000012 -0.012813 0.018293 35.012100 40.985400 -0.000006 -0.000013 1.209860 1.295660 -54.300900 11.754300 -0.000000 0.000003 -0.000008 -0.000111 -16.581900 -2.192510 6.469440 -0.000001 174.240000 12.908500 174.745000 -39.081100 -0.002282 -0.040193 0.056700 -0.053768 44.822300 -40.985400 0.000008 0.000006 6.079320 3.360540 -74.627100 -11.754300 -0.000006 -0.000006 -0.033329 -0.232336 -26.099900
0.000000 0.000000 0.000000 0.000000 0.000000 -0.000000 -3.326240 87.949100 19.592800 -90.518400 5.474260 -176.375000 15.735700 0.000005 -0.000001 91.633400 79.375900 -92.970200 8.984550 -0.406207 -0.000000 13.481600 0.532630 -2.737030 16.377300 -0.000001 -0.000001 0.156082 -4.875830 3.138980 6.456720 -0.000001 -0.000000 -5.503170 -4.460600 0.951560 12.994200 -0.242716 4.980390 -90.870000 3.144300 -74.526000 5.348090 -0.000007 -0.000001 -66.123700 29.221200 -12.526400 24.328600 0.000019 0.000005 6.809030 22.434000 -17.373900 22.291600 -0.000001 0.000005 11.310300 5.164070 3.604230 12.994500 -0.242716 -4.980390 88.824600 9.137070 -82.637700 -5.348130 -0.000001 -0.000004 -51.489900 21.892300 -24.715800 -24.328900 0.000322 -0.000009 -0.102997 -0.126592 -38.827100 -22.291500 -0.000108 -0.000004 19.826400 5.432670 -4.030890 -2.192480 -6.469440 -0.000000 179.527000 -5.095900 -27.316100 39.081100 -0.000007 -0.000012 -0.079121 0.096549 39.335300 40.985400 -0.000006 -0.000013 1.144570 0.039396 -58.859800 11.754300 -0.000000 0.000003 -0.000022 -0.000272 -16.588200 -2.192510 6.469440 -0.000001 174.056000 11.264300 172.884000 -39.081100 -0.002282 -0.040193 0.111776 -0.082894 52.630000 -40.985400 0.000008 0.000006 6.459390 2.006290 -68.336000 -11.754300 -0.000006 -0.000006 -0.084564 -0.404522 -33.387700
0.000000 0.000000 0.000000 0.000000 0.000000 -0.000000 -3.801860 87.906500 16.505400 -90.324600 6.031790 -175.172000 15.735700 0.000005 -0.000001 92.202100 79.099300 -93.680900 8.984550 -0.406207 -0.000000 14.031600 0.747320 -3.050830 16.377300 -0.000001 -0.000001 0.253154 -4.752640 2.633810 6.456720 -0.000001 -0.000000 -5.507800 -4.593550 0.816834 12.994200 -0.242716 4.980390 -90.798800 2.871660 -74.447600 5.348090 -0.000007 -0.000001 -65.421300 28.340600 -13.907200 24.328600 0.000019 0.000005 6.746610 22.264000 -17.340100 22.291600 -0.000001 0.000005 11.659000 5.147550 4.001660 12.994500 -0.242716 -4.980390 88.881600 8.872790 -82.786700 -5.348130 -0.000001 -0.000004 -53.736700 21.614800 -23.010700 -24.328900 0.000322 -0.000009 -0.199826 -0.252735 -38.191600 -22.291500 -0.000108 -0.000004 19.724700 5.430930 -3.971020 -2.192480 -6.469440 -0.000000 179.493000 -6.033210 -24.977600 39.081100 -0.000007 -0.000012 -0.116626 0.130655 41.753400 40.985400 -0.000006 -0.000013 1.643810 0.248894 -62.435100 11.754300 -0.000000 0.000003 -0.000033 -0.000393 -16.592900 -2.192510 6.469440 -0.000001 173.942000 8.774320 168.989000 -39.081100 -0.002282 -0.040193 0.164772 -0.087329 61.610300 -40.985400 0.000008 0.000006 5.359980 1.002320 -59.324800 -11.754300 -0.000006 -0.000006 -0.078060 -0.386482 -32.610200
0.000000 0.000000 0.000000 0.000000 0.000000 -0.000000 -4.123850 87.873600 13.671600 -90.047700 6.364180 -174.370000 15.735700 0.000005 -0.000001 91.950700 79.002800 -93.453300 8.984550 -0.406207 -0.000000 14.226800 0.655254 -3.088420 16.377300 -0.000001 -0.000001 0.292823 -4.494080 2.230730 6.456720 -0.000001 -0.000000 -5.220630 -4.302400 0.010956 12.994200 -0.242716 4.980390 -90.823700 2.953810 -74.411000 5.348090 -0.000007 -0.000001 -64.259800 27.447700 -14.996800 24.328600 0.000019 0.000005 7.072380 21.873000 -18.418800 22.291600 -0.000001 0.000005 12.297300 5.140850 4.161250 12.994500 -0.242716 -4.980390 88.880900 8.828860 -82.746700 -5.348130 -0.000001 -0.000004 -54.904100 22.730300 -22.288400 -24.328900 0.000322 -0.000009 -0.446454 -0.610190 -36.132400 -22.291500 -0.000108 -0.000004 19.056000 5.430810 -3.967210 -2.192480 -6.469440 -0.000000 179.638000 -7.269370 -22.820100 39.081100 -0.000007 -0.000012 -0.145205 0.153482 43.413300 40.985400 -0.000006 -0.000013 2.220560 0.900375 -65.468000 11.754300 -0.000000 0.000003 -0.000053 -0.000595 -16.600600 -2.192510 6.469440 -0.000001 174.305000 7.213380 164.777000 -39.081100 -0.002282 -0.040193 0.194799 -0.073433 69.037500 -40.985400 0.000008 0.000006 4.495330 -1.297430 -52.243900 -11.754300 -0.000006 -0.000006 -0.017139 -0.150894 -22.733200
0.000000 0.000000 0.000000 0.000000 0.000000 -0.000000 -4.295200 87.950100 11.091200 -89.668400 5.935950 -174.209000 15.735700 0.000005 -0.000001 90.527100 79.105700 -91.968600 8.984550 -0.406207 -0.000000 14.024800 0.119564 -2.898870 16.377300 -0.000001 -0.000001 0.215997 -4.305210 1.866490 6.456720 -0.000001 -0.000000 -5.000570 -3.969940 -0.346289 12.994200 -0.242716 4.980390 -90.871200 3.135640 -74.463900 5.348090 -0.000007 -0.000001 -62.835200 26.525000 -16.160200 24.328600 0.000019 0.000005 7.514220 21.197200 -20.042400 22.291600 -0.000001 0.000005 13.115100 5.147920 3.993120 12.994500 -0.242716 -4.980390 88.803500 9.159270 -82.524700 -5.348130 -0.000001 -0.000004 -55.297200 24.597400 -21.862200 -24.328900 0.000322 -0.000009 -0.143331 -0.213878 -33.560700 -22.291500 -0.000108 -0.000004 18.083700 5.423300 -3.709240 -2.192480 -6.469440 -0.000000 179.912000 -7.230160 -21.047200 39.081100 -0.000007 -0.000012 -0.174603 0.179892 44.145700 40.985400 -0.000006 -0.000013 2.498800 1.103580 -67.789200 11.754300 -0.000000 0.000003 -0.000080 -0.000848 -16.610200 -2.192510 6.469440 -0.000001 175.162000 7.549160 161.421000 -39.081100 -0.002282 -0.040193 0.182992 -0.054362 73.188700 -40.985400 0.000008 0.000006 5.301850 -4.541120 -53.719200 -11.754300 -0.000006 -0.000006 -0.017008 -0.150111 -22.701000
